<?xml version="1.0" encoding="utf-8"?>
<!-- Generator: Adobe Illustrator 25.0.1, SVG Export Plug-In . SVG Version: 6.00 Build 0)  -->
<svg version="1.1" id="레이어_1" xmlns="http://www.w3.org/2000/svg" xmlns:xlink="http://www.w3.org/1999/xlink" x="0px"
	 y="0px" viewBox="0 0 868 232" style="enable-background:new 0 0 868 232;" xml:space="preserve">
<style type="text/css">
	.st0{fill:none;}
	.st1{fill:#713EFF;}
	.st2{fill:#350871;}
	.st3{fill:#553ABD;}
	.st4{fill:#6D4AE0;}
	.st5{fill:#6B48DF;}
	.st6{fill:#461D7D;}
	.st7{fill:#412A9E;}
</style>
<path class="st0" d="M0,0v232h868V0H0z"/>
<path class="st1" d="M175,120h35c0-68.9-72.5-114.3-135-84.7C51,46.7,32.2,69.3,25.6,95c-1.5,5.7-5.2,17-2.9,22.7
	c1.1,2.7,4.9,2.3,7.3,2.3c5.5,0,24.4,2.9,28-1.6c2.6-3.3,2.3-12.1,3.7-16.4c3.6-10.9,9.6-20.2,18.3-27.7c24.9-21.3,61.3-17,81.5,8.7
	C170.3,94.2,172.5,106.4,175,120z"/>
<path class="st2" d="M237,26v85h36V26H237 M390,26v85l36-1V48l-1.6-21l-9.4-1H390 M452,26v85h35v5h1V26H452 M663,26v105l1,60h2
	c1.2-14.3,8.9-29.8,17.7-41c4.3-5.4,13.3-11.1,15-18c2.6-10.1,0.3-23.5,0.3-34V26H663 M493,50v35h112V50H493z"/>
<path class="st3" d="M604,110v6h1L604,110z"/>
<path class="st4" d="M210,113v7h-35v1h36L210,113z"/>
<path class="st1" d="M237,116c0.2,70.1,77.9,117.7,140,83.1c21.2-11.8,37.9-31.7,44.6-55.1c2.7-9.3,2.7-18.6,4.4-28h-37
	c0,39.5-40.7,72.6-79,55.8c-22.8-10-35.1-31.8-37-55.8H237 M452,116c0,81.5,99.6,124.3,159,69.1c8.5-7.9,15.8-17.4,20.6-28.1
	c5.9-13.3,8.4-26.5,8.4-41h-36c0,9-1.9,17.8-5.8,26c-3.3,6.9-7.8,12.7-13.2,18c-37.1,36.3-96,5.1-97-44H452 M667,210h36
	c0.1-8.7,2.1-17.1,5.8-25c3.7-7.8,8.7-15,15.2-20.6c37.8-32.2,94.6-3.2,95,45.6h36c0-13.6-2.4-26.5-7.9-39
	c-4.9-11-12.3-21.6-21.1-29.9C766.7,85.5,667,129.1,667,210z"/>
<path class="st5" d="M22,119c5,5.8,28.3,2,36,2v-1L22,119z"/>
<path class="st2" d="M58,121v5H22v84h36v-63V121 M174,123l1,87h36v-84C201.5,126,181.2,129.9,174,123 M63,126v25l1.6,10l21.4,1h59
	l23.4-1l1.6-9v-26l-43,1L63,126z"/>
<path class="st6" d="M65,126v1h104l-32-1H65z"/>
<path class="st2" d="M424,146c-2.9,12.2-9.9,24.7-18.2,34c-4.4,4.9-12.7,10-15.2,16.2c-1.6,3.9-0.6,9.6-0.6,13.8h36l-1-46L424,146z"
	/>
<path class="st7" d="M663,187v23h1L663,187z"/>
</svg>
