<?xml version="1.0" standalone="no"?>
<!DOCTYPE svg PUBLIC "-//W3C//DTD SVG 20010904//EN"
 "http://www.w3.org/TR/2001/REC-SVG-20010904/DTD/svg10.dtd">
<svg version="1.0" xmlns="http://www.w3.org/2000/svg"
 width="1600.000000pt" height="1600.000000pt" viewBox="0 0 1600.000000 1600.000000"
 preserveAspectRatio="xMidYMid meet">

<g transform="translate(0.000000,1600.000000) scale(0.100000,-0.100000)"
fill="#000000" stroke="none">
<path d="M7570 15353 c-267 -17 -384 -28 -555 -49 -1473 -184 -2860 -822
-3970 -1827 -1078 -975 -1840 -2239 -2189 -3635 -166 -662 -234 -1302 -215
-2020 41 -1471 553 -2935 1442 -4120 763 -1018 1760 -1812 2911 -2322 1136
-502 2398 -704 3646 -584 1394 133 2725 670 3825 1543 309 245 720 634 956
906 1437 1654 2054 3764 1733 5919 -225 1507 -946 2938 -2031 4031 -1283 1293
-2942 2043 -4763 2155 -147 9 -674 11 -790 3z m671 -633 c1197 -60 2292 -407
3286 -1040 1072 -683 1958 -1704 2477 -2853 343 -760 532 -1522 587 -2371 15
-230 6 -786 -15 -1006 -134 -1347 -631 -2565 -1464 -3590 -127 -155 -392 -451
-412 -458 -4 -2 -59 30 -121 71 -387 254 -731 407 -1609 717 -594 210 -879
333 -1087 469 -175 114 -314 272 -334 378 -15 79 -29 569 -22 775 l6 198 75
82 c279 309 538 777 650 1175 l26 94 66 44 c221 147 383 445 456 840 14 76 19
146 18 290 0 177 -2 196 -27 278 -29 94 -84 212 -124 264 l-24 33 60 242 c188
755 237 1427 145 1988 -110 673 -449 1176 -958 1424 -123 60 -207 91 -346 128
l-115 30 -90 87 c-222 214 -515 345 -917 411 -516 84 -1198 26 -1713 -145
-604 -201 -1036 -542 -1325 -1045 -313 -547 -423 -1282 -324 -2175 21 -190 75
-510 125 -740 l41 -190 -46 -70 c-50 -75 -96 -186 -123 -293 -24 -95 -24 -361
1 -497 63 -348 171 -587 341 -759 45 -45 104 -94 132 -111 47 -27 53 -35 64
-80 21 -88 97 -302 149 -417 137 -306 350 -634 538 -830 l65 -68 -7 -412 c-8
-524 -12 -569 -57 -643 -101 -169 -330 -333 -674 -486 -188 -83 -303 -126
-785 -299 -827 -296 -1206 -467 -1557 -705 l-92 -63 -83 87 c-506 523 -959
1203 -1266 1901 -549 1246 -700 2647 -431 3995 224 1124 731 2163 1484 3038
820 953 1915 1667 3112 2027 731 221 1501 317 2244 280z" fill="white"/>
</g>
</svg>
